<svg xmlns="http://www.w3.org/2000/svg" xmlns:xlink="http://www.w3.org/1999/xlink" width="500" zoomAndPan="magnify" viewBox="0 0 375 374.999991" height="500" preserveAspectRatio="xMidYMid meet" version="1.0"><defs><clipPath id="id1"><path d="M 19.371094 186.140625 L 131.855469 186.140625 L 131.855469 283.277344 L 19.371094 283.277344 Z M 19.371094 186.140625 " clip-rule="nonzero"/></clipPath><clipPath id="id2"><path d="M 75 91.304688 L 243.296875 91.304688 L 243.296875 283.277344 L 75 283.277344 Z M 75 91.304688 " clip-rule="nonzero"/></clipPath><clipPath id="id3"><path d="M 187.054688 91.304688 L 355.152344 91.304688 L 355.152344 283.277344 L 187.054688 283.277344 Z M 187.054688 91.304688 " clip-rule="nonzero"/></clipPath></defs><g clip-path="url(#id1)"><path fill="#9f67cc" d="M 103.320312 186.246094 L 47.390625 186.246094 L 19.371094 234.8125 L 47.390625 283.277344 L 103.320312 283.277344 L 131.335938 234.8125 L 103.320312 186.246094 " fill-opacity="1" fill-rule="nonzero"/></g><g clip-path="url(#id2)"><path fill="#1936b2" d="M 225.582031 204.175781 L 225.589844 204.171875 L 223.703125 200.902344 L 215.28125 186.246094 L 215.242188 186.246094 L 177.574219 121 L 177.566406 121.007812 L 159.246094 89.316406 L 103.320312 89.316406 L 75.300781 137.78125 L 94.15625 170.398438 L 94.152344 170.398438 L 140.308594 250.402344 L 159.246094 283.277344 L 215.28125 283.277344 L 243.191406 234.8125 L 225.582031 204.175781 " fill-opacity="1" fill-rule="nonzero"/></g><g clip-path="url(#id3)"><path fill="#000000" d="M 336.121094 201.820312 L 336.199219 201.773438 L 288.289062 118.601562 L 288.179688 118.667969 L 271.210938 89.316406 L 215.28125 89.316406 L 187.261719 137.78125 L 215.28125 186.246094 L 215.296875 186.246094 L 243.277344 234.671875 L 243.191406 234.8125 L 271.210938 283.277344 L 327.136719 283.277344 L 355.152344 234.8125 L 336.121094 201.820312 " fill-opacity="1" fill-rule="nonzero"/></g></svg>