<svg xmlns="http://www.w3.org/2000/svg" xmlns:xlink="http://www.w3.org/1999/xlink" width="500" zoomAndPan="magnify" viewBox="0 0 375 374.999991" height="500" preserveAspectRatio="xMidYMid meet" version="1.0"><defs><clipPath id="id1"><path d="M 20.945312 186.21875 L 126.902344 186.21875 L 126.902344 277.601562 L 20.945312 277.601562 Z M 20.945312 186.21875 " clip-rule="nonzero"/></clipPath><clipPath id="id2"><path d="M 73 97.101562 L 231.878906 97.101562 L 231.878906 277.601562 L 73 277.601562 Z M 73 97.101562 " clip-rule="nonzero"/></clipPath><clipPath id="id3"><path d="M 179 97.101562 L 337.25 97.101562 L 337.25 277.601562 L 179 277.601562 Z M 179 97.101562 " clip-rule="nonzero"/></clipPath></defs><g clip-path="url(#id1)"><path fill="#86c7ed" d="M 100.023438 186.320312 L 47.339844 186.320312 L 20.945312 232.007812 L 47.339844 277.601562 L 100.023438 277.601562 L 126.414062 232.007812 L 100.023438 186.320312 " fill-opacity="1" fill-rule="nonzero"/></g><g clip-path="url(#id2)"><path fill="#a066cb" d="M 215.195312 203.1875 L 215.203125 203.183594 L 213.425781 200.109375 L 205.492188 186.320312 L 205.453125 186.320312 L 169.972656 124.941406 L 169.964844 124.949219 L 152.707031 95.136719 L 100.023438 95.136719 L 73.628906 140.726562 L 91.394531 171.414062 L 91.390625 171.414062 L 134.867188 246.671875 L 152.707031 277.601562 L 205.492188 277.601562 L 231.78125 232.007812 L 215.195312 203.1875 " fill-opacity="1" fill-rule="nonzero"/></g><g clip-path="url(#id3)"><path fill="#1836b2" d="M 319.320312 200.96875 L 319.394531 200.925781 L 274.261719 122.683594 L 274.160156 122.75 L 258.175781 95.136719 L 205.492188 95.136719 L 179.097656 140.726562 L 205.492188 186.320312 L 205.507812 186.320312 L 231.863281 231.875 L 231.78125 232.007812 L 258.175781 277.601562 L 310.859375 277.601562 L 337.25 232.007812 L 319.320312 200.96875 " fill-opacity="1" fill-rule="nonzero"/></g></svg>